<?xml version="1.0" encoding="utf-8"?>
<!-- Generator: Adobe Illustrator 24.2.3, SVG Export Plug-In . SVG Version: 6.00 Build 0)  -->
<svg version="1.1" id="Layer_1" xmlns="http://www.w3.org/2000/svg" xmlns:xlink="http://www.w3.org/1999/xlink" x="0px" y="0px"
	 viewBox="0 0 438.54 124.11" style="enable-background:new 0 0 438.54 124.11;" xml:space="preserve">
<style type="text/css">
	.st0{clip-path:url(#SVGID_2_);fill:#FFFFFF;}
</style>
<g>
	<defs>
		<rect id="SVGID_1_" width="438.54" height="124.11"/>
	</defs>
	<clipPath id="SVGID_2_">
		<use xlink:href="#SVGID_1_"  style="overflow:visible;"/>
	</clipPath>
	<path class="st0" d="M68.45,83.13c12.81-7,19.22-19.78,19.22-38.34c0-12.5-3.03-22.69-9.08-30.57C72.54,6.34,63.06,2.4,50.17,2.4
		H3.83H1.79c-0.05,0-0.09,0.03-0.14,0.03L1.61,2.4c-0.5,0-0.96,0.23-1.27,0.62c-0.05,0.06-0.06,0.14-0.1,0.21
		C0.17,3.35,0.11,3.46,0.07,3.59C0.06,3.63,0.04,3.68,0.03,3.72c-0.04,0.21-0.04,0.43,0.01,0.65c0,0.01,0,0.02,0,0.03l1.57,6.48
		c0.13,0.56,0.56,0.98,1.1,1.15c0.19,0.09,0.39,0.15,0.6,0.18l0.47,0.05v109.68c0,0.9,0.73,1.62,1.62,1.62h18.01
		c0.9,0,1.62-0.72,1.62-1.62V23.33h25.15c9.03,0,11.14,2.74,11.82,3.64c3.15,4.1,4.75,10.1,4.75,17.82
		c0,15.44-5.84,18.63-8.34,19.99l-0.69,0.37c-0.04,0.01-0.1,0.02-0.14,0.04l-3.12-5.15c-0.49-0.95-1.91-0.87-1.91-0.87H32.96
		c-2.86,0.25-1.6,2.4-1.6,2.4l36.12,60.33c1.02,1.99,2.45,1.66,2.45,1.66h20.34c1.93-0.83,0.66-3.32,0.66-3.32L68.45,83.13z"/>
	<path class="st0" d="M287.37,0c-41.44,0-46.75,33.16-46.75,62.05c0,28.89,5.31,62.06,46.75,62.06c41.45,0,46.76-33.16,46.76-62.06
		C334.13,33.16,328.82,0,287.37,0 M287.37,104.93c-18.62,0-25.54-11.62-25.54-42.88c0-31.25,6.92-42.87,25.54-42.87
		c18.62,0,25.54,11.62,25.54,42.87C312.92,93.31,305.99,104.93,287.37,104.93"/>
	<path class="st0" d="M222.02,2.48h-22.94c-0.5,0-0.97,0.23-1.27,0.62c-0.31,0.39-0.42,0.9-0.3,1.38l1.57,6.48
		c0.16,0.66,0.71,1.15,1.38,1.23l1.45,0.17v109.76c0,0.9,0.73,1.62,1.62,1.62h18.49c0.89,0,1.62-0.73,1.62-1.62V4.1
		C223.64,3.2,222.91,2.48,222.02,2.48"/>
	<path class="st0" d="M436.9,2.4h-17.44c-0.44,0-0.86,0.17-1.16,0.48c-0.31,0.31-0.48,0.72-0.48,1.15l0.43,77.09L370.11,3.18
		c-0.3-0.48-0.83-0.78-1.4-0.78h-20.97c-0.51,0-0.98,0.23-1.29,0.62c-0.31,0.39-0.42,0.9-0.3,1.38l1.58,6.48
		c0.16,0.66,0.71,1.15,1.39,1.23l1.92,0.23v109.71c0,0.9,0.73,1.62,1.64,1.62h17.44h0.05c0.83,0.09,1.67-0.71,1.67-1.62
		c0-0.18-0.03-0.35-0.09-0.52l-0.44-77.95l48.15,79.31c0.3,0.48,0.82,0.78,1.4,0.78h16.03c0.9,0,1.64-0.73,1.64-1.62V4.02
		C438.54,3.13,437.81,2.4,436.9,2.4"/>
	<path class="st0" d="M191.03,121.64L154.48,3.58c-0.21-0.68-0.83-1.14-1.53-1.14H137.6c-0.11-0.03-0.22-0.04-0.34-0.04h-7.2
		c-0.49,0-0.96,0.23-1.26,0.62c-0.31,0.39-0.41,0.9-0.3,1.38l1.54,6.48c0.15,0.62,0.64,1.09,1.25,1.21L97.39,121.64
		c-0.15,0.49-0.06,1.03,0.24,1.44c0.3,0.42,0.78,0.66,1.29,0.66h18.73c0.71,0,1.34-0.48,1.54-1.17l8.7-33.35h31.82l9.53,33.35
		c0.2,0.69,0.83,1.17,1.54,1.17h18.74c0.51,0,0.99-0.25,1.29-0.66C191.1,122.67,191.19,122.13,191.03,121.64 M144.21,33.54
		l10.72,38.39h-21.88L144.21,33.54z"/>
</g>
</svg>


